<?xml version="1.0" encoding="UTF-8"?>
<!DOCTYPE svg PUBLIC "-//W3C//DTD SVG 1.1//EN" "http://www.w3.org/Graphics/SVG/1.1/DTD/svg11.dtd">
<!-- Creator: CorelDRAW -->
<svg xmlns="http://www.w3.org/2000/svg" xml:space="preserve" width="210mm" height="297mm" version="1.1" style="shape-rendering:geometricPrecision; text-rendering:geometricPrecision; image-rendering:optimizeQuality; fill-rule:evenodd; clip-rule:evenodd"
viewBox="0 0 21000 29700"
 xmlns:xlink="http://www.w3.org/1999/xlink"
 xmlns:xodm="http://www.corel.com/coreldraw/odm/2003">
 <defs>
  <style type="text/css">
   <![CDATA[
    .fil5 {fill:none}
    .fil3 {fill:#009B4C}
    .fil4 {fill:#1E88E5}
    .fil0 {fill:#9D2AB1}
    .fil1 {fill:#F34538}
    .fil2 {fill:#FEC107}
   ]]>
  </style>
     <clipPath id="id0">
      <path d="M14447.43 8710.85l-47.53 0 0 16.46 29.71 0c0,2.38 0,4.92 0,7.64 0,7.8 -5.94,11.71 -17.82,11.71 -3.91,0 -7.81,0 -11.89,0 -3.56,0 -7.29,0 -11.2,0 -11.03,0 -16.63,-5.77 -16.63,-17.31 0,-4.08 0,-7.81 0,-11.71 0,-3.91 0,-7.81 0,-11.55 0,-11.54 5.43,-17.31 16.63,-17.31 3.91,0 7.64,0 11.2,0 3.74,0 7.47,0 11.21,0 11.03,0 16.63,2.89 16.63,8.49 0,1.87 0,3.73 0,5.77l19.18 0c0,-4.41 0,-8.66 0,-12.73 0,-12.73 -9.51,-19.18 -28.18,-19.18 -6.28,0 -12.56,0 -18.84,0 -6.1,0 -12.38,0 -18.83,0 -18.67,0 -28.18,9.34 -28.18,27.67 0,6.28 0,12.56 0,18.84 0,6.11 0,12.39 0,18.66 0,18.67 9.51,28.01 28.18,28.01 6.28,0 12.56,0 18.83,0 6.45,0 12.73,0 19.01,0 19.01,0.17 28.52,-7.3 28.52,-22.23 0,-4.93 0,-9.85 0,-14.77l0 -16.46z"/>
     </clipPath>
 </defs>
 <g id="圖層_x0020_1">
  <metadata id="CorelCorpID_0Corel-Layer"/>
  <g id="_3140571333728">
   <g>
    <polygon class="fil0" points="14441.39,8726.47 14558.95,8725.94 14558.85,8711.85 14441.49,8710.49 "/>
    <polygon class="fil1" points="14363.5,8726.26 14363.39,8710.8 14246.25,8711.12 14245.83,8724.9 "/>
    <polygon class="fil2" points="14395.34,8678.65 14409.96,8678.75 14410.06,8559.52 14396.18,8559.62 "/>
    <polygon class="fil3" points="14395.34,8876.2 14409.96,8876.3 14410.06,8757.07 14396.18,8757.17 "/>
    <polygon class="fil4" points="14338.97,8706.17 14339.14,8731.29 14339.82,8781.86 14392.6,8782.2 14416.02,8782.54 14466.09,8782.54 14465.75,8731.62 14465.92,8705.66 14466.09,8653.89 14414.66,8654.06 14390.9,8653.89 14338.8,8653.89 "/>
    <g style="clip-path:url(#id0)">
     <image x="14101.2" y="8423" width="598.77" height="598.77" xlink:href="logo_Images\logo_ImgID1.png"/>
    </g>
   </g>
   <rect class="fil5" x="14233.06" y="8548.58" width="338.67" height="338.67"/>
  </g>
 </g>
</svg>
